<?xml version="1.0" standalone="no"?>
<!DOCTYPE svg PUBLIC "-//W3C//DTD SVG 20010904//EN"
 "http://www.w3.org/TR/2001/REC-SVG-20010904/DTD/svg10.dtd">
<svg version="1.0" xmlns="http://www.w3.org/2000/svg"
 width="500.000000pt" height="500.000000pt" viewBox="0 0 500.000000 500.000000"
 preserveAspectRatio="xMidYMid meet">

<g transform="translate(0.000000,500.000000) scale(0.100000,-0.100000)"
fill="#000000" stroke="none">
<path d="M2218 4291 l-53 -50 44 10 c24 5 52 14 62 19 10 6 107 10 217 10 174
0 205 -2 243 -19 89 -38 93 -35 30 23 l-61 56 -214 0 -215 0 -53 -49z"/>
<path d="M2200 4080 c0 -5 5 -10 10 -10 6 0 10 5 10 10 0 6 -4 10 -10 10 -5 0
-10 -4 -10 -10z"/>
<path d="M2412 4055 c-24 -7 -61 -26 -83 -40 -53 -37 -140 -144 -96 -119 7 4
9 3 4 -2 -5 -5 -14 -9 -20 -9 -5 0 -12 -5 -14 -11 -4 -12 65 -36 79 -28 4 3 8
1 8 -5 0 -6 18 -3 43 6 60 23 208 23 267 1 33 -13 79 -52 175 -149 83 -83 150
-141 185 -160 38 -20 130 -103 298 -267 l243 -237 -1 -135 c0 -74 -4 -142 -9
-149 -14 -21 -19 12 -24 139 -2 58 -8 112 -13 120 -5 8 -106 110 -224 226
-132 130 -232 220 -260 234 -25 13 -112 88 -195 168 -82 79 -163 153 -180 163
-47 29 -122 25 -213 -13 -124 -51 -306 -163 -415 -257 -56 -47 -147 -125 -202
-171 -177 -149 -319 -279 -342 -312 -21 -32 -22 -41 -25 -444 -3 -394 -2 -413
16 -433 11 -12 17 -23 14 -26 -5 -6 -38 38 -49 65 -3 8 -17 15 -30 15 -15 0
-25 7 -27 20 -3 10 -11 29 -19 42 -18 27 -38 32 -25 6 6 -12 4 -29 -4 -48 -11
-26 -13 3 -9 200 4 243 -2 376 -16 353 -6 -9 -9 -6 -9 10 0 13 4 21 9 18 5 -4
11 50 13 122 4 123 5 129 40 197 43 83 117 158 429 432 57 50 148 131 202 179
l99 87 -30 30 -30 29 -98 -86 c-54 -48 -104 -84 -111 -82 -26 10 -12 -15 17
-32 56 -32 21 -46 -40 -16 l-32 17 -41 -41 c-39 -39 -40 -42 -24 -60 17 -18
14 -21 -54 -80 -39 -34 -78 -62 -88 -62 -9 0 -26 -7 -37 -15 -35 -26 -50 -17
-21 13 24 25 26 33 21 78 l-6 51 140 119 141 119 0 118 1 119 -32 -27 c-71
-59 -158 -147 -152 -156 3 -5 -1 -6 -8 -4 -8 3 -78 -53 -163 -128 -140 -125
-207 -190 -177 -173 16 10 15 -24 -2 -46 -23 -31 -44 -17 -37 25 0 4 -23 7
-53 7 -38 0 -60 -6 -78 -20 -30 -23 -58 -78 -58 -112 0 -15 -26 -52 -70 -103
l-70 -80 0 -265 0 -266 25 -34 25 -34 0 281 c0 272 1 281 22 309 42 57 92 104
110 104 17 0 18 -17 18 -271 l0 -272 33 -41 c49 -59 57 -79 57 -134 0 -35 6
-57 22 -77 41 -52 58 -98 58 -155 1 -30 7 -66 15 -80 9 -18 10 -29 3 -37 -14
-17 -31 -17 -22 0 4 7 3 8 -2 4 -9 -9 -10 -13 -12 -59 -2 -28 -22 -41 -22 -14
0 8 -18 21 -40 30 -33 13 -40 21 -40 43 l-1 28 -39 -42 c-22 -23 -40 -50 -40
-60 0 -25 47 -93 111 -160 174 -183 259 -277 259 -285 0 -6 -29 -7 -75 -3 -65
6 -76 5 -81 -10 -4 -10 -14 -15 -25 -12 -22 6 -24 -3 -7 -22 11 -11 9 -11 -12
-1 -25 13 -25 13 -6 -8 10 -12 22 -19 27 -17 4 3 10 1 14 -5 3 -5 34 -10 68
-10 55 0 64 3 94 32 l32 31 48 -44 c26 -24 47 -48 45 -52 -3 -9 45 -51 60 -53
5 -1 13 -2 18 -3 6 0 33 -22 60 -47 51 -48 61 -75 40 -114 -8 -15 -4 -23 23
-45 17 -15 58 -52 90 -82 31 -31 57 -50 57 -44 0 18 -49 100 -82 140 -52 60
-22 43 45 -26 45 -46 67 -76 67 -93 0 -28 75 -110 101 -110 9 0 42 29 72 63
44 51 54 67 44 77 -9 9 -6 9 10 -1 31 -19 37 -38 10 -31 -17 4 -14 -2 14 -24
19 -16 55 -48 80 -72 28 -27 62 -48 93 -57 27 -8 57 -22 67 -31 13 -12 43 -18
95 -21 76 -4 78 -4 190 51 111 55 115 58 288 229 97 96 176 172 176 169 0 -3
-50 -56 -111 -118 -125 -126 -126 -129 -66 -199 l34 -39 46 27 c52 31 71 58
62 88 -5 15 6 33 50 77 31 31 64 71 72 87 8 17 49 62 91 102 63 60 78 70 91
60 12 -10 14 -9 8 6 -5 12 9 33 47 73 l53 56 29 -16 c16 -9 40 -25 54 -36 23
-18 35 -19 138 -13 l113 6 74 98 c40 53 71 100 68 103 -4 3 -1 6 5 6 17 0 15
91 -3 114 -7 10 -18 16 -22 13 -5 -3 -7 24 -5 61 3 48 9 73 22 86 17 17 17 22
5 46 -17 33 -42 45 -61 29 -8 -6 -14 -8 -15 -3 0 5 -4 1 -8 -10 -7 -17 -9 -17
-37 8 -24 23 -25 25 -6 16 13 -6 26 -9 30 -6 3 3 0 6 -7 6 -7 0 -9 4 -6 10 3
5 -3 15 -15 22 -11 7 -20 18 -20 25 0 19 39 36 70 29 23 -4 37 3 74 35 50 45
54 54 30 80 -15 17 -21 14 -105 -58 -48 -42 -86 -80 -83 -85 3 -4 -2 -11 -10
-14 -9 -3 -13 -11 -9 -18 4 -6 -2 -4 -12 4 -17 14 -18 13 -13 -2 4 -9 -1 -23
-13 -34 -18 -16 -19 -16 -19 8 0 14 7 31 15 38 11 9 15 32 15 82 0 67 2 72 40
115 l40 46 2 131 c1 88 3 113 7 77 l6 -53 58 60 57 61 0 275 c0 186 3 276 10
276 15 0 53 -43 90 -100 l31 -48 -3 -346 c-2 -205 1 -345 6 -343 5 2 17 19 28
37 16 32 18 63 18 354 l0 318 -57 90 c-66 105 -102 138 -147 138 -27 0 -46 13
-112 78 -43 43 -128 124 -189 180 -60 56 -171 160 -245 231 l-135 129 -9 -51
c-5 -34 -5 -62 3 -83 6 -17 11 -51 11 -75 0 -41 5 -49 56 -99 52 -52 84 -96
84 -119 0 -5 -9 -12 -20 -15 -11 -3 -29 -8 -39 -11 -15 -5 -18 -2 -14 14 3 14
-5 26 -33 45 l-38 26 -31 -28 -30 -27 29 32 29 32 -69 64 c-88 81 -130 117
-139 117 -18 0 -62 -41 -60 -57 2 -20 175 -193 193 -193 7 0 11 -4 9 -8 -1 -4
59 -64 133 -132 227 -208 331 -313 351 -355 17 -37 18 -67 17 -415 l-2 -375
-6 385 c-4 336 -7 389 -22 416 -18 32 -172 183 -217 212 -14 9 -53 43 -85 74
-33 31 -64 54 -69 51 -6 -3 -7 -2 -4 4 4 6 -23 37 -59 71 -48 44 -71 59 -89
57 -14 -1 -22 2 -19 7 3 5 13 7 23 3 10 -4 7 2 -8 16 -19 18 -34 22 -76 20
l-52 -2 -7 41 c-3 22 -11 38 -16 35 -6 -3 -7 1 -4 9 3 9 1 16 -5 16 -6 0 -10
5 -9 11 5 21 -94 30 -157 14 l-30 -8 28 31 29 30 -74 70 c-102 97 -131 120
-172 137 -43 18 -136 18 -194 0z m-844 -214 c-10 -17 -10 -23 0 -29 9 -6 5
-15 -15 -33 -15 -13 -23 -17 -17 -9 5 8 11 28 13 44 1 16 8 34 14 41 17 19 20
10 5 -14z m830 -158 c-4 -50 -9 -60 -45 -92 -22 -20 -64 -67 -94 -106 -121
-158 -206 -249 -358 -383 -87 -78 -169 -158 -181 -177 -12 -20 -31 -70 -41
-112 -27 -106 -48 -125 -116 -107 -22 6 -23 10 -23 130 0 111 2 124 20 137 10
7 34 32 52 55 18 23 89 90 159 150 239 205 409 356 409 364 0 28 -38 -2 -335
-261 -121 -106 -246 -222 -277 -257 l-58 -65 -2 -207 c0 -114 -2 -211 -3 -217
-2 -5 -3 -18 -4 -28 0 -10 -5 -15 -11 -12 -13 8 -14 490 -1 514 11 19 247 236
401 368 58 50 148 130 201 179 98 92 243 184 288 184 22 0 23 -2 19 -57z m377
-83 c66 -66 145 -136 175 -155 30 -19 151 -129 268 -244 l212 -211 0 -100 c0
-59 -4 -100 -10 -100 -32 0 -88 35 -109 68 -48 75 -128 160 -194 208 -38 27
-87 74 -109 104 -65 86 -183 224 -295 343 -97 104 -103 112 -103 153 0 39 8
51 35 53 6 1 64 -53 130 -119z m586 -41 c-9 -23 -10 -22 -10 11 -1 23 2 31 9
24 7 -7 7 -19 1 -35z m-2206 -29 c-3 -5 -16 -15 -28 -21 -22 -12 -22 -12 -3
10 19 21 43 30 31 11z m115 -123 c0 -2 -10 -12 -22 -23 l-23 -19 19 23 c18 21
26 27 26 19z m1010 -90 c-20 -17 -62 -55 -95 -83 -171 -146 -332 -283 -373
-318 l-47 -38 50 46 c44 41 270 237 435 379 62 53 83 63 30 14z m319 -102
c101 -105 103 -119 29 -192 -29 -28 -127 -115 -218 -193 l-165 -142 -5 -187
c-3 -104 -1 -190 4 -196 6 -6 7 -6 2 2 -3 6 -3 14 2 17 5 3 53 -36 108 -86 54
-49 114 -102 132 -116 29 -22 31 -27 17 -35 -12 -6 -21 -3 -34 12 -10 12 -25
21 -32 21 -17 1 -49 24 -49 35 0 5 8 2 18 -6 10 -8 5 -2 -11 13 -17 15 -35 26
-41 25 -6 -1 -10 4 -9 10 3 15 -45 49 -55 39 -3 -4 0 -11 8 -16 18 -12 2 -12
-25 0 -11 5 -14 9 -7 9 6 1 12 6 12 12 0 6 -7 8 -16 5 -14 -5 -15 -4 -4 9 10
12 16 13 29 3 14 -12 14 -11 2 4 -10 13 -18 15 -32 8 -15 -9 -17 -8 -12 6 4
11 3 15 -5 10 -6 -3 -15 1 -20 11 -9 15 -23 10 -131 -45 -122 -63 -137 -69
-127 -53 10 15 -18 31 -34 20 -12 -9 -13 -11 -1 -16 11 -5 11 -7 0 -14 -11 -7
-9 -9 5 -9 16 0 17 -3 8 -12 -31 -31 -35 7 -33 308 1 163 6 306 11 318 4 11
28 40 52 63 74 71 522 443 534 443 6 0 48 -38 93 -85z m978 -207 c-3 -8 -6 -5
-6 6 -1 11 2 17 5 13 3 -3 4 -12 1 -19z m-713 -144 c36 -32 79 -75 97 -96 38
-48 50 -31 -131 -182 -78 -65 -129 -101 -135 -95 -5 5 -26 9 -46 9 -33 0 -38
-3 -44 -28 -7 -35 -48 -80 -79 -88 -34 -8 -52 -84 -21 -84 8 0 15 -4 15 -10 0
-16 -27 -11 -34 6 -3 9 -6 30 -6 48 0 27 -5 34 -35 45 -40 14 -75 54 -75 86 0
18 -4 21 -30 17 -18 -3 -30 0 -30 7 0 6 14 11 30 11 19 0 30 5 30 14 0 25 49
74 85 86 30 10 35 16 35 44 0 17 -5 37 -12 44 -8 8 -8 12 -1 12 14 0 23 -24
23 -60 0 -23 7 -32 38 -47 22 -11 45 -33 57 -55 16 -30 26 -38 49 -38 29 0 29
0 22 48 -11 83 -89 162 -164 166 -20 1 -8 16 77 99 l100 97 59 0 c59 0 62 -1
126 -56z m-1627 -131 c-3 -10 -5 -2 -5 17 0 19 2 27 5 18 2 -10 2 -26 0 -35z
m2163 13 c-7 -7 -13 -7 -20 0 -6 6 -3 10 10 10 13 0 16 -4 10 -10z m-1015 -66
c-27 -28 -64 -43 -49 -19 6 10 64 49 73 49 3 0 -8 -13 -24 -30z m-826 -57 c-1
-43 -5 -107 -9 -143 l-7 -65 -2 90 c0 50 -4 114 -7 143 -6 44 -4 52 10 52 13
0 16 -12 15 -77z m1873 65 c-9 -9 -15 -9 -24 0 -9 9 -7 12 12 12 19 0 21 -3
12 -12z m-1018 -42 c-8 -22 -45 -39 -58 -26 -8 8 -4 18 18 36 21 19 31 22 37
13 4 -7 5 -17 3 -23z m187 0 c16 -14 25 -28 19 -31 -12 -7 -54 4 -46 13 3 3
-1 14 -11 24 -25 27 3 23 38 -6z m502 -88 c18 -24 19 -36 12 -146 -6 -100 -10
-120 -22 -115 -10 4 -11 8 -3 13 8 5 4 9 -9 13 -16 4 -21 0 -22 -16 0 -21 -1
-21 -9 -2 -5 11 -9 14 -9 8 -1 -17 -73 -17 -89 -1 -9 9 -12 9 -12 0 0 -16 -31
-15 -54 3 -10 8 -23 12 -29 8 -6 -3 -7 -1 -3 6 4 6 12 9 17 6 5 -4 9 -1 9 4 0
16 -8 14 -46 -10 -38 -23 -45 -35 -11 -19 21 11 21 10 3 -4 -10 -9 -22 -13
-27 -11 -4 3 -19 0 -32 -6 -18 -8 -34 -9 -55 -1 -22 7 -33 7 -42 -1 -14 -15
-6 24 21 98 l19 50 177 77 c98 42 182 76 187 74 6 -1 18 -14 29 -28z m-809
-68 c14 -5 26 -14 26 -20 0 -6 -12 -4 -30 5 -44 23 -42 33 4 15z m341 -110
c-16 -31 -40 -48 -52 -36 -4 3 9 22 27 41 39 41 48 39 25 -5z m-260 -6 c23
-15 34 -44 17 -44 -16 0 -52 32 -52 46 0 18 5 18 35 -2z m-1232 -189 c21 -25
36 -45 35 -45 -2 0 -24 20 -48 45 -24 25 -40 45 -34 45 5 0 27 -20 47 -45z
m1232 -15 c3 -5 1 -10 -4 -10 -6 0 -11 5 -11 10 0 6 2 10 4 10 3 0 8 -4 11
-10z m1332 -12 c-3 -8 -6 -5 -6 6 -1 11 2 17 5 13 3 -3 4 -12 1 -19z m115 5
c-7 -3 -27 -17 -45 -31 -30 -26 -31 -26 -15 -3 17 24 59 51 68 43 3 -3 -1 -7
-8 -9z m-1172 -203 c23 -19 48 -39 56 -43 22 -12 6 -29 -16 -17 -13 7 -21 7
-26 -2 -4 -7 -3 -8 4 -4 7 4 12 2 12 -4 0 -7 -7 -9 -17 -6 -10 4 -26 -2 -42
-16 -17 -16 -21 -17 -11 -4 14 17 13 18 -7 12 -17 -5 -33 4 -74 42 l-53 49 28
47 27 47 39 -33 c21 -18 57 -49 80 -68z m1234 -14 c-3 -8 -13 -17 -22 -21 -13
-5 -13 -2 3 15 21 24 26 25 19 6z m-76 -73 c-19 -21 -38 -45 -41 -53 -5 -12
-6 -12 -6 1 -1 9 16 33 36 53 49 47 57 46 11 -1z m-1923 -133 c83 -82 159
-150 169 -150 9 0 80 -61 157 -136 77 -75 142 -134 145 -131 3 3 6 11 8 19 1
7 5 19 10 26 10 16 -1 76 -19 112 -7 14 -63 73 -123 133 -61 59 -107 107 -102
107 5 0 57 -46 115 -102 123 -119 139 -125 312 -127 l102 -1 68 52 c37 28 75
55 83 61 30 19 -57 -56 -110 -95 -30 -23 -60 -47 -66 -54 -6 -8 -24 -15 -40
-16 -16 0 -46 -14 -66 -29 -24 -19 -38 -25 -41 -16 -3 9 -7 9 -18 1 -8 -6 -27
-11 -43 -10 -31 2 -52 -29 -34 -51 7 -9 6 -18 -3 -30 -12 -15 -12 -16 1 -8 12
6 13 5 3 -5 -18 -19 -41 -1 -179 140 -65 67 -137 131 -159 142 -22 11 -106 85
-186 165 -99 98 -151 143 -159 138 -9 -5 -11 -4 -6 3 4 7 12 12 18 12 7 0 80
-67 163 -150z m445 137 c0 -2 -10 -12 -22 -23 l-23 -19 19 23 c18 21 26 27 26
19z m410 -27 c0 -5 -4 -10 -10 -10 -5 0 -10 5 -10 10 0 6 5 10 10 10 6 0 10
-4 10 -10z m299 -46 c-18 -20 -43 -40 -54 -45 -11 -6 2 11 30 36 59 54 72 59
24 9z m718 -26 c-3 -8 -6 -5 -6 6 -1 11 2 17 5 13 3 -3 4 -12 1 -19z m-1357 8
c0 -3 -4 -8 -10 -11 -5 -3 -10 -1 -10 4 0 6 5 11 10 11 6 0 10 -2 10 -4z m155
-26 c-3 -5 -20 -19 -38 -30 -32 -22 -32 -22 3 9 37 32 45 37 35 21z m1173 3
c-10 -2 -28 -2 -40 0 -13 2 -5 4 17 4 22 1 32 -1 23 -4z m-923 -81 c-3 -3 -11
0 -18 7 -9 10 -8 11 6 5 10 -3 15 -9 12 -12z m325 -262 c0 -5 -5 -10 -11 -10
-5 0 -7 5 -4 10 3 6 8 10 11 10 2 0 4 -4 4 -10z m-654 -117 c-7 -7 -26 7 -26
19 0 6 6 6 15 -2 9 -7 13 -15 11 -17z m-46 7 c0 -5 -4 -10 -10 -10 -5 0 -10 5
-10 10 0 6 5 10 10 10 6 0 10 -4 10 -10z m-450 -46 c0 -8 -4 -12 -10 -9 -5 3
-10 10 -10 16 0 5 5 9 10 9 6 0 10 -7 10 -16z m450 6 c8 -5 11 -10 5 -10 -5 0
-17 5 -25 10 -8 5 -10 10 -5 10 6 0 17 -5 25 -10z m45 -10 c-3 -5 -12 -10 -18
-10 -7 0 -6 4 3 10 19 12 23 12 15 0z m545 6 c0 -3 -4 -8 -10 -11 -5 -3 -10
-1 -10 4 0 6 5 11 10 11 6 0 10 -2 10 -4z m-839 -32 c23 -25 23 -26 2 -13 -13
7 -25 19 -27 26 -8 19 -2 16 25 -13z"/>
<path d="M2951 2736 c-8 -10 -9 -16 -1 -21 5 -3 10 -5 11 -3 4 18 7 38 4 38
-1 0 -8 -6 -14 -14z"/>
<path d="M2882 2725 c2 -13 -4 -20 -17 -23 -17 -3 -18 -1 -5 8 12 10 12 11 -5
5 -11 -4 -35 -11 -53 -15 -35 -9 -54 -20 -33 -20 7 0 3 -12 -10 -30 -18 -24
-20 -32 -9 -44 7 -9 16 -14 19 -11 4 2 8 -2 8 -10 0 -17 -14 -20 -19 -5 -2 6
-8 6 -18 0 -13 -8 -12 -10 3 -10 10 0 15 -5 12 -10 -4 -6 -11 -7 -17 -4 -7 4
-8 2 -4 -4 10 -17 33 -5 109 59 29 24 35 34 25 41 -9 6 -6 7 8 4 13 -4 27 1
39 14 10 11 14 20 9 20 -5 0 -2 5 6 10 13 8 12 10 -4 10 -16 0 -17 2 -5 18 13
16 12 16 -4 3 -16 -13 -20 -13 -28 0 -8 11 -9 10 -7 -6z m28 -32 c0 -9 -3 -13
-6 -10 -4 3 -15 2 -25 -4 -24 -12 -25 -1 -1 17 23 18 32 17 32 -3z m-60 3 c0
-3 -4 -8 -10 -11 -5 -3 -10 -1 -10 4 0 6 5 11 10 11 6 0 10 -2 10 -4z m-34
-42 c1 -9 -1 -13 -4 -9 -4 4 -7 10 -7 13 0 4 -4 14 -9 22 -7 12 -6 13 4 3 8
-7 15 -20 16 -29z m21 -39 c4 -4 3 -5 -3 -2 -7 4 -14 0 -18 -8 -3 -8 -11 -15
-18 -15 -10 0 -10 2 1 9 7 5 11 13 7 19 -7 12 20 10 31 -3z"/>
<path d="M2705 2619 c-4 -6 -5 -12 -2 -15 2 -3 7 2 10 11 7 17 1 20 -8 4z"/>
<path d="M2107 4023 c-4 -3 -7 -11 -7 -17 0 -6 5 -5 12 2 6 6 9 14 7 17 -3 3
-9 2 -12 -2z"/>
<path d="M1323 3911 c-57 -46 -88 -79 -81 -87 4 -3 37 24 75 60 76 73 79 86 6
27z"/>
<path d="M3677 3895 c43 -55 82 -90 90 -82 8 8 -48 69 -92 100 l-30 22 32 -40z"/>
<path d="M950 2507 c0 -27 12 -45 80 -112 l80 -79 22 22 23 22 -90 90 c-49 50
-95 90 -102 90 -8 0 -13 -13 -13 -33z"/>
<path d="M1171 2284 c0 -11 3 -14 6 -6 3 7 2 16 -1 19 -3 4 -6 -2 -5 -13z"/>
<path d="M1203 1775 c-7 -8 -9 -16 -4 -19 5 -3 12 1 15 10 8 22 4 25 -11 9z"/>
<path d="M1302 1641 c8 -11 35 -37 60 -58 26 -21 65 -64 87 -95 26 -36 67 -74
116 -107 41 -28 75 -48 75 -43 0 4 -28 26 -61 48 -34 21 -81 64 -105 94 -74
94 -221 232 -172 161z"/>
<path d="M3295 1350 c-38 -26 -81 -59 -94 -74 -29 -31 -23 -34 10 -5 13 12 49
38 79 59 46 31 93 73 79 69 -2 0 -35 -22 -74 -49z"/>
<path d="M1707 1250 c5 -20 103 -115 103 -100 0 20 -43 75 -75 96 -29 19 -32
19 -28 4z"/>
<path d="M3065 1174 l-50 -45 43 22 c47 26 66 43 60 58 -1 6 -25 -10 -53 -35z"/>
<path d="M2448 790 c-86 -3 -159 -8 -163 -12 -14 -14 135 -20 418 -17 262 4
321 8 306 23 -7 7 -396 11 -561 6z"/>
</g>
</svg>
